<?xml version="1.0" standalone="no"?>
<!DOCTYPE svg PUBLIC "-//W3C//DTD SVG 20010904//EN"
 "http://www.w3.org/TR/2001/REC-SVG-20010904/DTD/svg10.dtd">
<svg version="1.0" xmlns="http://www.w3.org/2000/svg"
 width="984.000000pt" height="984.000000pt" viewBox="0 0 984.000000 984.000000"
 preserveAspectRatio="xMidYMid meet">
<metadata>
Created by potrace 1.14, written by Peter Selinger 2001-2017
</metadata>
<g transform="translate(0.000000,984.000000) scale(0.100000,-0.100000)"
fill="#000000" stroke="none">
<path d="M7811 9129 c-21 -22 -40 -56 -47 -84 -19 -78 -24 -206 -24 -705 l0
-356 -707 -1 c-643 -1 -852 -4 -998 -18 -27 -3 -75 -7 -105 -10 -30 -2 -71 -7
-90 -10 -19 -2 -55 -7 -80 -10 -25 -3 -56 -7 -70 -10 -13 -2 -42 -7 -65 -11
-35 -5 -226 -48 -265 -59 -8 -2 -31 -8 -50 -13 -100 -26 -439 -173 -448 -194
-2 -4 -8 -8 -13 -8 -13 0 -143 -81 -147 -91 -2 -5 -8 -9 -14 -9 -40 0 -376
-302 -496 -446 -42 -51 -55 -69 -121 -161 -19 -26 -38 -49 -43 -51 -4 -2 -8
-7 -8 -12 0 -5 -22 -41 -48 -82 -27 -40 -51 -80 -55 -88 -4 -8 -18 -33 -31
-55 -24 -38 -186 -360 -186 -368 0 -3 -10 -26 -22 -53 -12 -27 -23 -53 -24
-59 -3 -8 -81 -216 -101 -265 -3 -8 -7 -19 -9 -25 -1 -5 -12 -37 -24 -70 -11
-33 -20 -60 -20 -60 1 0 -1 -7 -4 -15 -20 -64 -75 -248 -82 -275 -1 -5 -12
-45 -24 -87 -11 -43 -23 -85 -24 -95 -2 -10 -11 -45 -21 -78 -9 -33 -18 -69
-20 -80 -3 -16 -30 -126 -69 -280 -10 -40 -29 -108 -42 -152 -9 -29 -17 -58
-18 -65 -2 -7 -5 -20 -8 -28 -3 -8 -24 -71 -46 -140 -22 -69 -46 -138 -53
-155 -7 -16 -13 -32 -14 -35 -39 -114 -203 -440 -226 -448 -5 -2 -9 -8 -9 -14
0 -9 -71 -112 -118 -170 -161 -201 -415 -403 -619 -494 -117 -51 -269 -83
-428 -88 -59 -2 -109 -7 -112 -10 -3 -3 -14 -1 -24 5 -11 5 -19 6 -19 2 0 -10
-75 -7 -90 2 -6 3 -10 3 -10 -2 0 -4 -45 -8 -100 -8 -55 0 -100 3 -100 7 0 4
-11 4 -23 -1 -13 -5 -29 -6 -36 -1 -7 4 -28 4 -47 0 -20 -5 -34 -4 -34 2 0 5
-5 6 -12 2 -14 -9 -103 -8 -118 1 -5 3 -10 3 -10 -2 0 -4 -45 -8 -100 -8 -55
0 -100 3 -100 7 0 4 -7 5 -15 2 -22 -9 -145 -10 -145 -2 0 4 -11 4 -23 -1 -13
-5 -29 -6 -36 -1 -7 4 -28 4 -47 0 -20 -5 -34 -4 -34 2 0 5 -5 6 -11 2 -16 -9
-149 -11 -149 -1 0 5 -4 6 -9 3 -5 -3 -36 -8 -69 -10 -57 -5 -112 -25 -137
-50 -6 -6 -22 -29 -35 -51 l-25 -40 1 -465 c1 -470 3 -540 17 -540 4 0 7 -9 7
-20 0 -27 21 -71 46 -96 37 -38 83 -58 169 -72 57 -10 1373 -9 1475 1 146 14
240 26 249 31 3 2 29 7 56 10 28 4 57 9 65 11 8 2 26 6 40 9 14 2 45 9 70 16
25 7 50 13 55 14 6 1 16 5 23 9 6 5 12 6 12 3 0 -3 26 4 58 15 31 11 62 22 67
23 50 13 72 21 94 32 14 8 29 14 34 14 26 0 389 180 407 201 3 3 19 13 35 22
76 39 258 169 380 271 75 63 290 278 330 330 17 21 37 46 45 54 8 9 45 56 82
106 37 50 72 96 77 103 6 7 11 16 11 21 0 5 7 15 15 22 8 7 21 24 28 39 18 34
84 143 94 156 5 6 28 48 52 95 24 47 48 89 52 95 5 5 9 17 9 26 0 10 3 19 8
21 4 2 14 19 23 38 36 75 69 151 69 155 0 3 9 24 19 48 19 43 33 80 31 85 0 1
6 15 13 30 15 28 56 149 76 217 6 22 18 63 27 91 8 28 17 57 18 65 2 8 5 21 9
29 3 8 35 121 72 250 36 129 69 242 72 250 3 8 7 21 9 28 1 7 17 61 34 120
109 365 228 711 301 869 43 96 83 177 89 183 3 3 13 21 23 40 18 37 30 55 92
147 54 80 206 230 285 281 36 23 70 45 75 49 14 11 148 75 160 77 5 1 15 4 20
7 9 6 78 30 100 35 20 5 51 14 105 28 30 8 69 17 85 20 17 3 39 8 50 10 36 7
170 27 216 31 24 3 71 7 104 10 33 3 80 7 105 10 184 17 1271 28 1286 13 3 -3
5 -248 6 -544 0 -492 2 -545 19 -612 24 -93 57 -130 114 -128 60 3 136 49 227
136 20 19 118 114 219 210 100 96 210 202 245 235 185 178 425 408 469 450 59
56 373 357 523 503 59 56 109 102 112 103 10 1 105 119 108 134 2 8 7 15 11
15 16 0 34 89 27 132 -7 41 -34 97 -65 130 -9 9 -21 23 -27 30 -10 12 -187
181 -427 408 -49 47 -113 108 -142 135 -28 28 -123 118 -210 200 -87 83 -181
173 -210 200 -28 28 -92 88 -141 134 -49 46 -159 150 -244 232 -85 82 -186
178 -225 214 -154 145 -265 195 -314 144z"/>
<path d="M330 8137 c-3 -3 -30 -7 -61 -10 -31 -3 -76 -14 -100 -25 -48 -21
-95 -59 -92 -73 2 -5 -1 -9 -6 -9 -5 0 -13 -15 -16 -32 -4 -18 -10 -37 -13
-43 -8 -13 -10 -23 -18 -125 -9 -114 -8 -795 1 -851 14 -84 46 -127 119 -159
41 -19 79 -20 807 -21 420 0 787 -2 814 -4 66 -4 155 -14 180 -20 11 -2 39 -9
61 -14 277 -68 571 -281 817 -591 35 -45 87 -121 87 -129 0 -5 4 -11 8 -13 5
-1 23 -29 41 -61 18 -32 37 -55 41 -50 4 4 15 33 25 63 10 30 20 62 23 70 3 8
6 17 7 20 1 3 7 17 13 33 7 15 14 39 16 53 3 14 9 31 14 37 5 7 15 30 22 52
13 41 104 263 120 293 10 19 62 134 65 142 15 57 297 539 327 561 5 3 6 13 3
21 -7 19 -171 171 -257 239 -35 28 -71 56 -81 64 -9 8 -21 15 -26 15 -5 0 -11
4 -13 9 -1 5 -52 41 -113 80 -60 38 -115 74 -120 78 -84 65 -554 271 -660 288
-11 2 -54 13 -95 24 -41 11 -88 22 -105 25 -16 3 -40 7 -52 10 -11 2 -43 8
-70 12 -26 3 -57 8 -68 10 -11 3 -47 7 -80 10 -33 3 -76 7 -95 11 -40 6 -1464
16 -1470 10z"/>
<path d="M7829 4418 c-34 -34 -61 -119 -63 -195 -1 -29 -5 -53 -9 -53 -4 0 -4
-8 1 -17 9 -20 8 -54 -2 -71 -3 -6 -3 -13 2 -16 9 -5 9 -47 -1 -63 -4 -7 -4
-14 1 -17 9 -5 9 -47 -1 -63 -4 -7 -4 -14 1 -17 9 -5 9 -47 -1 -63 -4 -7 -4
-14 1 -17 9 -5 9 -47 -1 -63 -4 -7 -4 -14 1 -17 9 -5 9 -47 -1 -63 -4 -7 -4
-14 1 -17 9 -5 9 -47 -1 -63 -4 -7 -4 -14 1 -17 9 -5 9 -47 -1 -63 -4 -7 -4
-14 1 -17 9 -5 9 -47 -1 -63 -4 -7 -4 -14 1 -17 9 -5 9 -47 -1 -63 -4 -7 -4
-14 1 -17 9 -5 7 -70 -3 -86 -3 -6 -2 -10 2 -10 13 0 9 -74 -5 -85 -8 -6 -176
-10 -465 -9 -521 1 -693 7 -922 30 -33 3 -78 8 -100 9 -22 2 -53 6 -70 9 -16
3 -43 7 -60 10 -55 7 -190 33 -190 36 0 1 -7 3 -15 5 -39 10 -66 16 -75 19 -5
2 -23 6 -40 11 -16 4 -34 11 -40 15 -8 6 -34 14 -75 25 -19 4 -137 67 -193
103 -99 62 -228 184 -282 265 -5 8 -26 39 -46 68 -52 79 -84 133 -82 141 1 3
-4 12 -12 18 -8 7 -15 16 -15 21 0 5 -13 37 -30 71 -16 34 -30 67 -30 75 0 7
-4 13 -10 13 -5 0 -10 5 -10 12 0 21 -55 148 -64 148 -5 0 -7 -2 -4 -6 3 -3
-1 -26 -9 -52 -8 -26 -16 -55 -18 -66 -5 -20 -44 -152 -53 -176 -3 -8 -6 -19
-6 -25 -2 -12 -21 -79 -43 -150 -30 -96 -83 -241 -124 -340 -7 -16 -13 -32
-14 -35 -7 -21 -29 -71 -45 -102 -10 -20 -16 -39 -13 -42 4 -3 1 -6 -5 -6 -7
0 -12 -5 -12 -11 0 -14 -109 -234 -160 -324 -22 -38 -46 -81 -52 -95 -7 -14
-15 -27 -18 -30 -3 -3 -18 -27 -34 -53 l-27 -48 128 -127 c70 -70 143 -138
162 -152 18 -14 43 -33 55 -44 39 -34 204 -146 215 -146 6 0 11 -4 11 -10 0
-5 6 -10 14 -10 8 0 21 -6 28 -13 42 -42 380 -183 538 -226 75 -20 309 -68
343 -70 36 -2 47 -5 47 -10 0 -3 17 -6 38 -7 20 0 69 -4 107 -8 97 -10 176
-16 275 -21 47 -2 85 -4 85 -5 0 -1 90 -3 201 -4 110 -1 205 -6 211 -9 6 -4
13 -3 17 1 4 4 230 7 502 8 494 0 495 0 493 -20 -1 -12 0 -23 1 -26 5 -15 4
-70 -2 -70 -4 0 -3 -12 2 -26 7 -18 7 -31 0 -39 -7 -9 -8 -15 -1 -19 7 -4 7
-15 1 -31 -6 -15 -6 -27 0 -30 6 -3 6 -15 0 -30 -6 -16 -6 -25 0 -25 6 0 6 -9
1 -22 -5 -13 -5 -34 0 -47 6 -15 5 -28 -1 -36 -5 -6 -7 -15 -3 -18 8 -9 7
-112 -2 -126 -3 -6 -3 -11 2 -11 4 0 8 -29 8 -65 0 -36 -3 -65 -6 -65 -3 0 -5
-10 -3 -22 1 -13 3 -23 4 -23 1 0 3 -52 4 -116 4 -160 30 -254 81 -292 13 -10
89 -1 117 15 40 23 141 103 200 159 31 30 125 119 209 199 84 80 184 175 222
212 39 38 71 68 73 68 1 0 36 33 77 73 41 39 143 137 227 217 84 80 179 170
211 200 32 30 126 120 210 200 411 391 387 366 421 431 33 65 35 118 4 186
-22 48 -58 88 -201 230 -96 94 -175 171 -175 170 0 -1 -49 45 -109 103 -60 58
-184 177 -276 265 -92 88 -198 189 -235 225 -37 36 -147 142 -245 235 -98 94
-212 204 -255 245 -261 253 -328 310 -365 310 -8 0 -15 4 -15 8 0 5 -18 9 -41
9 -31 0 -47 -7 -70 -29z"/>
</g>
</svg>
